<?xml version="1.0" encoding="utf-8"?>
<!-- Generator: Adobe Illustrator 25.1.0, SVG Export Plug-In . SVG Version: 6.00 Build 0)  -->
<svg version="1.0" id="Слой_1" xmlns="http://www.w3.org/2000/svg" xmlns:xlink="http://www.w3.org/1999/xlink" x="0px" y="0px"
	 viewBox="0 0 524.41 127.56" style="enable-background:new 0 0 524.41 127.56;" xml:space="preserve">
<g>
	<g>
		<circle cx="236.68" cy="21.43" r="19.4"/>
		<path d="M74.56,96.75l0.72,0.51c-4.05,18.85-15.11,28.28-33.2,28.28c-10.9,0-19.99-3.37-27.27-10.12
			C7.59,108.7,3.98,99.37,3.98,87.42c0-11.86,3.62-21.02,10.85-27.48c7.28-6.46,16.44-9.69,27.48-9.69c10.8,0,18.97,2.89,24.52,8.68
			c5.59,5.83,8.39,12.46,8.39,19.89v1.66H29v1.3c0,9.02,2.46,15.62,7.38,19.82c4.92,4.19,10.87,6.29,17.86,6.29
			C63.45,107.88,70.22,104.17,74.56,96.75z M39.63,54.44h0.07c-6.46,0-10.01,7.33-10.63,21.99H50.7
			C50.36,61.77,46.67,54.44,39.63,54.44z"/>
		<path d="M207.13,106.8l0.07-0.36c0,5.26,0.43,8.8,1.3,10.63c0.87,1.78,2.94,4.15,6.22,6.13v1.01h-42.81v-1.01
			c3.23-2.12,5.33-4.56,6.29-6.35c0.96-1.78,1.47-5.25,1.52-10.41c0.19-12.29,0.29-22.49,0.29-30.59c0-4.15-0.94-7.23-2.82-9.26
			c-1.88-2.03-4.1-3.04-6.65-3.04c-3.95,0-7.35,2.39-10.2,7.16c0.1,0.68,0.14,1.47,0.14,2.39v33.41c0,5.26,0.48,9,1.45,10.83
			c0.92,1.78,2.94,3.74,6.07,5.86v1.01h-42.67v-1.01c3.23-1.93,5.33-3.88,6.29-5.86c0.96-1.98,1.47-5.67,1.52-10.69
			c0.1-6.08,0.14-16.3,0.14-30.66c0-4.1-0.92-7.18-2.75-9.26c-1.78-2.03-3.95-3.04-6.51-3.04c-3.81,0-7.21,2.43-10.2,7.3v35.65
			c0,5.26,0.48,8.8,1.45,10.63c0.96,1.78,2.99,3.79,6.07,5.91v1.01H78.69v-1.01c3.28-1.98,5.35-3.91,6.22-5.7
			c0.87-1.83,1.3-5.38,1.3-10.63V77.43c0-6.51-0.43-10.85-1.3-13.02c-0.87-2.17-2.89-4.56-6.07-7.16v-1.01
			c11.19-0.58,22.68-2.6,34.5-6.08v15.55c6.56-10.17,14.85-15.26,24.88-15.26c4.29,0,8.58,1.16,12.87,3.47
			c4.29,2.31,7.18,6.39,8.68,12.22c6.51-10.46,14.9-15.69,25.17-15.69c2.17,0,4.34,0.29,6.51,0.87c2.22,0.58,4.58,1.59,7.09,3.04
			c2.56,1.45,4.63,3.81,6.22,7.09c1.59,3.23,2.39,7.21,2.39,11.93V106.8z"/>
		<path d="M218.86,124.21l0-1.01c3.28-1.98,5.36-3.92,6.23-5.7c0.87-1.83,1.3-5.38,1.3-10.63V77.58c0-4.63-0.29-8.17-0.87-10.63
			c-0.58-2.46-1.25-4.15-2.03-5.06c-0.82-0.92-2.34-2.36-4.56-4.34v-1.16c11.81-0.77,23.48-2.87,35-6.29v56.7
			c0,5.26,0.48,8.8,1.45,10.63c0.96,1.78,2.99,3.65,6.07,5.77v1.01H218.86z"/>
	</g>
	<g>
		<path d="M283.46,81.79l3.53-18.05l5.83,13.01l5.9-13.01l3.17,18.05h-2.64l-1.68-10.13l-4.9,10.9l-4.83-10.92l-1.75,10.15H283.46z"
			/>
		<path d="M315.19,77.71h-7.13l-1.85,4.08h-2.78l8.35-17.76l7.97,17.76h-2.78L315.19,77.71z M314.18,75.31l-2.5-5.66l-2.59,5.66
			H314.18z"/>
		<path d="M324.36,71.56h7.15v-6.58h2.59v16.8h-2.59v-7.82h-7.15v7.82h-2.59v-16.8h2.59V71.56z"/>
		<path d="M349.27,70.46l-11.33,12.05V64.99h2.59v11.33l11.33-12.05v17.52h-2.59V70.46z"/>
		<path d="M358.29,71.68l6.48-6.7h3.36l-7.58,7.61l7.63,9.19h-3.41l-6.48-8.06v8.06h-2.59v-16.8h2.59V71.68z"/>
		<path d="M375.52,71.66c0.36-2.35,1.56-3.84,2.16-4.49c0.94-1.01,2.88-2.52,6.14-2.52c4.94,0,8.5,3.79,8.5,8.76
			c0,4.92-3.55,8.71-8.5,8.71c-3.86,0-5.86-2.06-6.58-2.95c-0.94-1.15-1.78-2.9-1.82-5.11h-2.5v7.73h-2.59v-16.8h2.59v6.67H375.52z
			 M389.64,73.39c0-3.7-2.42-6.34-5.81-6.34c-3.38,0-5.81,2.64-5.81,6.34c0,3.67,2.4,6.34,5.81,6.34
			C387.24,79.72,389.64,77.06,389.64,73.39z"/>
		<path d="M399.09,64.99c1.1,0,2.4,0.07,3.67,0.91c1.68,1.1,2.09,2.83,2.09,4.08c0,1.75-0.79,2.95-1.63,3.67
			c-1.32,1.13-2.88,1.32-4.1,1.32h-1.13v6.82h-2.59v-16.8H399.09z M397.99,72.57h1.13c1.13,0,3.14-0.26,3.14-2.62
			c0-2.45-2.28-2.57-3.17-2.57h-1.1V72.57z"/>
		<path d="M288.69,96.19v14.4h-2.59v-14.4h-3.84v-2.4h10.27v2.4H288.69z"/>
		<path d="M297.24,93.79c1.34,0,2.81-0.05,4.15,0.89c1.01,0.7,1.9,1.87,1.9,3.79c0,0.94-0.22,2.09-1.49,3.07
			c2.11,0.65,2.93,2.5,2.93,4.06c0,0.98-0.31,2.69-1.68,3.82c-1.46,1.2-3.29,1.18-4.49,1.18h-3.86v-16.8H297.24z M297.29,101.01
			h0.77c0.58,0,2.74,0,2.74-2.47c0-2.3-2.06-2.35-2.64-2.35h-0.86V101.01z M297.29,108.19h1.54c2.76,0,3.31-1.46,3.31-2.54
			c0-1.15-0.62-2.52-3.26-2.52h-1.58V108.19z"/>
		<path d="M324.5,102.21c0,4.9-3.7,8.71-8.74,8.71c-5.04,0-8.74-3.82-8.74-8.71c0-4.94,3.72-8.76,8.74-8.76
			S324.5,97.27,324.5,102.21z M321.81,102.21c0-3.72-2.5-6.36-6.05-6.36c-3.55,0-6.05,2.64-6.05,6.36c0,3.7,2.5,6.31,6.05,6.31
			C319.32,108.52,321.81,105.91,321.81,102.21z"/>
		<path d="M336.84,96.19h-6.67v4.03h6.48v2.4h-6.48v5.57h6.67v2.4h-9.26v-16.8h9.26V96.19z"/>
		<path d="M348.41,96.19h-5.81v14.4H340v-16.8h8.4V96.19z"/>
		<path d="M365.93,102.21c0,4.9-3.7,8.71-8.74,8.71c-5.04,0-8.74-3.82-8.74-8.71c0-4.94,3.72-8.76,8.74-8.76
			S365.93,97.27,365.93,102.21z M363.24,102.21c0-3.72-2.5-6.36-6.05-6.36c-3.55,0-6.05,2.64-6.05,6.36c0,3.7,2.5,6.31,6.05,6.31
			C360.74,108.52,363.24,105.91,363.24,102.21z"/>
		<path d="M377.18,100.36h7.15v-6.58h2.59v16.8h-2.59v-7.82h-7.15v7.82h-2.59v-16.8h2.59V100.36z"/>
		<path d="M400.7,106.51h-7.13l-1.85,4.08h-2.78l8.35-17.76l7.97,17.76h-2.78L400.7,106.51z M399.69,104.11l-2.5-5.66l-2.59,5.66
			H399.69z"/>
		<path d="M419.04,97.72c-1.78-1.73-3.62-1.87-4.54-1.87c-3.65,0-6.03,2.71-6.03,6.41c0,3.58,2.47,6.26,6.03,6.26
			c0.79,0,2.64-0.14,4.54-1.94v3.07c-0.53,0.34-2.09,1.27-4.61,1.27c-1.44,0-3.79-0.29-5.95-2.33c-1.63-1.56-2.69-3.6-2.69-6.34
			c0-2.18,0.67-4.66,2.69-6.58c1.75-1.68,3.77-2.23,6.07-2.23c2.16,0,3.46,0.55,4.49,1.25V97.72z"/>
		<path d="M426.81,96.19v14.4h-2.59v-14.4h-3.84v-2.4h10.27v2.4H426.81z"/>
		<path d="M436.51,93.79c1.1,0,2.4,0.07,3.67,0.91c1.68,1.1,2.09,2.83,2.09,4.08c0,1.75-0.79,2.95-1.63,3.67
			c-1.32,1.13-2.88,1.32-4.1,1.32h-1.13v6.82h-2.59v-16.8H436.51z M435.4,101.37h1.13c1.13,0,3.14-0.26,3.14-2.62
			c0-2.45-2.28-2.57-3.17-2.57h-1.1V101.37z"/>
		<path d="M461.47,102.21c0,4.9-3.7,8.71-8.74,8.71c-5.04,0-8.74-3.82-8.74-8.71c0-4.94,3.72-8.76,8.74-8.76
			S461.47,97.27,461.47,102.21z M458.78,102.21c0-3.72-2.5-6.36-6.05-6.36c-3.55,0-6.05,2.64-6.05,6.36c0,3.7,2.5,6.31,6.05,6.31
			C456.28,108.52,458.78,105.91,458.78,102.21z"/>
		<path d="M473.8,96.19h-6.67v4.03h6.48v2.4h-6.48v5.57h6.67v2.4h-9.26v-16.8h9.26V96.19z"/>
		<path d="M479.56,100.36h7.15v-6.58h2.59v16.8h-2.59v-7.82h-7.15v7.82h-2.59v-16.8h2.59V100.36z"/>
		<path d="M504.47,99.26l-11.33,12.05V93.79h2.59v11.33l11.33-12.05v17.52h-2.59V99.26z"/>
		<path d="M514.46,103.58c-0.84-0.1-1.87-0.5-2.59-1.13c-1.18-1.01-1.44-2.38-1.44-3.58c0-1.49,0.46-2.59,1.3-3.5
			c1.46-1.58,3.34-1.58,4.56-1.58h4.15v16.8h-2.59v-6.72h-0.6l-4.61,6.72h-3.17L514.46,103.58z M516.57,96.19
			c-1.15,0-2.23,0.12-2.86,0.77c-0.43,0.46-0.7,1.32-0.7,1.92c0,0.82,0.31,1.58,0.86,2.02c0.31,0.24,0.96,0.58,2.54,0.58h1.42v-5.28
			H516.57z"/>
	</g>
</g>
</svg>
